PathFileType	4	(X/Y/Z)	/Users/whiskymisky/masters/Sports2D_results/trial_4_Sports2D/trial_4_Sports2D_px_person00.trc
DataRate	CameraRate	NumFrames	NumMarkers	Units	OrigDataRate	OrigDataStartFrame	OrigNumFrames
50	50	8	22	m	50	549	1098
Frame#	Time	Hip			RHip			RKnee			RAnkle			RBigToe			RSmallToe			RHeel			LHip			LKnee			LAnkle			LBigToe			LSmallToe			LHeel			Neck			Head			Nose			RShoulder			RElbow			RWrist			LShoulder			LElbow			LWrist		
		X1	Y1	Z1	X2	Y2	Z2	X3	Y3	Z3	X4	Y4	Z4	X5	Y5	Z5	X6	Y6	Z6	X7	Y7	Z7	X8	Y8	Z8	X9	Y9	Z9	X10	Y10	Z10	X11	Y11	Z11	X12	Y12	Z12	X13	Y13	Z13	X14	Y14	Z14	X15	Y15	Z15	X16	Y16	Z16	X17	Y17	Z17	X18	Y18	Z18	X19	Y19	Z19	X20	Y20	Z20	X21	Y21	Z21	X22	Y22	Z22
549	10.98	958.1331937847979	610.3106436171267	0.0	924.4852669050867	623.1927796711732	0.0	895.1299449750385	754.1699714011496	0.0	876.1206272282288	866.2082451424063	0.0	877.6417030914185	901.0450746120007	0.0	857.5328898131244	897.0445487870638	0.0	881.0482184995515	878.8814295989125	0.0	990.4518637473592	624.5331683095225	0.0	1009.7428629405651	751.7990288112846	0.0	1028.2802987535892	855.6391238706366	0.0	1043.1247963283604	888.8853813856792	0.0	1056.5017458639754	882.2381556699686	0.0	1021.1030534954679	867.3977823993422	0.0	960.5587780428483	434.9454935199104	0.0	961.7574156411902	351.05160998845724	0.0	959.9862639880546	397.07966657538344	0.0	906.1176328751952	453.56938083580496	0.0	829.4949349477625	468.0793467101133	0.0	808.422644220988	401.4083948638822	0.0	1017.0033579845829	452.322883832357	0.0	1088.7654427536695	466.24708806182514	0.0	1099.942146951165	399.4735094948749	0.0
550	11.0	958.3371274555568	610.4486113974878	0.0	924.6900236490702	623.2121297767376	0.0	895.3613062825834	754.4569350859855	0.0	876.0267763220481	866.5142405976998	0.0	877.6164456980794	901.3758927357223	0.0	857.3766058651057	897.3193318244125	0.0	881.1523835373149	879.1439358816556	0.0	990.5847872933023	624.5395255010509	0.0	1010.1836846019573	751.7944377962633	0.0	1028.5132150860532	855.58283627898	0.0	1043.2205259841467	889.0949573892201	0.0	1056.5785220006073	882.3033448392202	0.0	1021.1375068604384	867.3714066509092	0.0	960.5674555324056	435.0446016462627	0.0	961.9262244119958	351.2795953806621	0.0	960.3437534694554	397.2101784461436	0.0	906.022603184957	453.5891031503797	0.0	829.5124472782836	468.0602022597291	0.0	808.2982106486076	401.5921171431798	0.0	1017.0942600947803	452.32944694065793	0.0	1089.0977843594405	466.5371544221526	0.0	1099.5562546489712	399.73939995805705	0.0
551	11.02	958.4655826445613	610.472084618426	0.0	924.88794397912	623.2773433381781	0.0	895.5606057867168	754.6674948455834	0.0	875.9984214684871	866.7361502520708	0.0	877.7317872355051	901.7139059581584	0.0	857.3017212158802	897.4731541092527	0.0	881.2838589419754	879.3525615357281	0.0	990.7500043651344	624.6180144038238	0.0	1010.6015888646763	751.859592568103	0.0	1028.8716333306822	855.4350075574316	0.0	1043.1168565193661	889.3134417448592	0.0	1056.610473735969	882.3950379199382	0.0	1021.470684714822	867.3010336312868	0.0	960.6532445327468	435.0296593919993	0.0	961.991241063278	351.53566179206854	0.0	960.7180201048648	397.4372061752689	0.0	905.8540369153909	453.66938515049173	0.0	829.514493043043	468.0798122180054	0.0	808.1708681372775	401.7370991409906	0.0	1017.1379588394136	452.4161771583069	0.0	1089.311398732528	466.74567343608277	0.0	1098.9531397733058	399.82151187134343	0.0
552	11.040000000000001	958.4855752214461	610.4509696384398	0.0	925.073974572219	623.4697043906759	0.0	895.6861838021662	754.8600156049489	0.0	876.0737415746128	866.9073932256488	0.0	877.8302044045579	902.1147408117957	0.0	857.2636951205376	897.6565840715257	0.0	881.4803002007986	879.6134122689829	0.0	990.9371344483134	624.7754387335525	0.0	1010.950880882099	752.0886629736561	0.0	1029.284010016954	855.2847316815895	0.0	1043.0252280665923	889.4799930643331	0.0	1056.6993340961876	882.5370438783914	0.0	1022.0192951056242	867.2777548539541	0.0	960.7854406477755	434.898014152676	0.0	961.9027242908896	351.78332183345583	0.0	960.9202782462613	397.6704776802916	0.0	905.7803194892634	453.8402342178702	0.0	829.536005454485	468.1428232052401	0.0	808.0671579907902	401.8326434796666	0.0	1017.1837780377028	452.5911654032828	0.0	1089.5359972708127	466.91820854567766	0.0	1098.285489520488	399.95854642220775	0.0
553	11.06	958.4120343453337	610.4587110543428	0.0	925.2500436987572	623.7246463317715	0.0	895.7323680117629	755.0910390821332	0.0	876.2542122809498	867.1201116564202	0.0	877.7783674541854	902.5349990404305	0.0	857.1751497036325	897.9768822907665	0.0	881.7959609621828	879.9874382644833	0.0	991.0837348105539	624.9611539938087	0.0	1011.1997074379501	752.498982238204	0.0	1029.6907721760763	855.2701466280778	0.0	1043.1652228155701	889.5967986736266	0.0	1056.9693361578516	882.755913201325	0.0	1022.6645049316834	867.4058541204156	0.0	960.8661916081834	434.70447402619817	0.0	961.7024231130249	351.92924398618004	0.0	960.8214486195571	397.7704817065744	0.0	905.8877785871211	454.06930081698	0.0	829.5507848743335	468.19451014454495	0.0	808.004252100598	401.8209759058383	0.0	1017.2784441928575	452.79767703036225	0.0	1089.858846250819	467.05529365483744	0.0	1097.8201504297585	400.34938054646193	0.0
554	11.08	958.3131286640014	610.4862256890625	0.0	925.4115119301197	623.9100633821461	0.0	895.770471511654	755.2577756230644	0.0	876.5032896685191	867.2719597977755	0.0	877.6724602278863	902.7858035682898	0.0	857.079914776166	898.2622211267342	0.0	882.150687734948	880.3081348389109	0.0	991.1359003688302	625.0898617299048	0.0	1011.3424391616543	752.9339945875761	0.0	1030.0034388491772	855.3701664631664	0.0	1043.5449857132087	889.7343018524249	0.0	1057.3551971974657	883.0342923434249	0.0	1023.234311090568	867.5966767001688	0.0	960.8492968047303	434.56977015243024	0.0	961.5536086078438	351.9279743584054	0.0	960.4646908207559	397.7646357030705	0.0	906.0548231522845	454.29744636304156	0.0	829.5348943345177	468.21978564370335	0.0	808.0183010886742	401.70297649590555	0.0	1017.3808294169903	453.0336901114547	0.0	1090.0515458583172	467.06421060435144	0.0	1097.7764533022669	400.6779492482526	0.0
555	11.1	958.2232580729335	610.4796903377684	0.0	925.511437217704	623.9305146412066	0.0	895.8897813973579	755.24139949468	0.0	876.7659154719975	867.2257155393733	0.0	877.6903707230581	902.7498998894828	0.0	857.1126380376461	898.3179233075107	0.0	882.3964645934739	880.3489008960116	0.0	991.1042852503776	625.0682017275062	0.0	1011.4189472208966	753.2037385101984	0.0	1030.1461637841217	855.469344319131	0.0	1043.9962645568592	889.9068062725781	0.0	1057.698500359439	883.264017436635	0.0	1023.5693050020373	867.703705166933	0.0	960.8023999983392	434.59414971349366	0.0	961.6143721670815	351.8215778475546	0.0	960.0039929910984	397.7744442179864	0.0	906.1284387662865	454.49297673914725	0.0	829.4882420574658	468.29227669568087	0.0	808.0861505387276	401.61840207282194	0.0	1017.4024550864451	453.3236510612475	0.0	1089.881625659667	466.92615030694867	0.0	1098.160713823821	400.65546059664763	0.0
556	11.120000000000001	958.118216106646	610.4408637169922	0.0	925.4777873185094	623.7969723923972	0.0	896.0851762323035	755.1189777764246	0.0	876.9846108039917	867.0526342858125	0.0	877.8407941065815	902.5089365873702	0.0	857.3272724299843	898.1855241056525	0.0	882.5247587803071	880.1211187565254	0.0	991.0493545117195	624.904658052583	0.0	1011.4795216712604	753.2686653362392	0.0	1030.132979005118	855.5589075962355	0.0	1044.3747227255715	890.0121076549887	0.0	1057.9587128163769	883.3330890219247	0.0	1023.6214128723016	867.7711847486985	0.0	960.8304261343374	434.7749947631783	0.0	961.8587007135551	351.68693875486963	0.0	959.6319050644875	397.85155877616427	0.0	906.1158062232687	454.6583345553571	0.0	829.4160011903992	468.49951682859466	0.0	808.1007901286293	401.74819626340917	0.0	1017.3312679353022	453.6303654317956	0.0	1089.5018266590644	466.81404345804725	0.0	1098.7179293823156	400.59206840239386	0.0
